<?xml version="1.0" encoding="iso-8859-1"?>
<!-- Generator: Adobe Illustrator 19.0.0, SVG Export Plug-In . SVG Version: 6.00 Build 0)  -->
<svg version="1.1" id="Capa_1" xmlns="http://www.w3.org/2000/svg" xmlns:xlink="http://www.w3.org/1999/xlink" x="0px" y="0px"
	 viewBox="0 0 512.002 512.002" style="enable-background:new 0 0 512.002 512.002;" xml:space="preserve">
<g>
	<g>
		<path d="M477.994,99.645c11.54-6.715,34.008-29.032,34.008-45.99c0-25.284-43.823-20.207-65.261-7.771
			c-13.643,7.932-20.204,22.483-17.682,35.455c-40.034,21.654-63.843,37.796-76.312,45.62c-0.038-8.557,2.36-19.792,4.564-28.058
			c12.947,0.364,26.285-7.783,32.723-22.634c1.655-3.821-0.103-8.26-3.924-9.915c-3.821-1.655-8.259,0.103-9.914,3.924
			c-3.951,9.117-11.395,13.571-18.033,13.571c-11.873,0-17.789-13.925-11.343-26.303c6.671-12.813,27.629-30.464,32.584-27.911
			c0.547,0.284,2.589,3.112,2.589,11.74c0,0.745-0.016,1.5-0.045,2.263c-0.161,4.161,3.08,7.664,7.242,7.825
			c4.164,0.15,7.664-3.082,7.825-7.242c0.413-10.623-1.222-23.055-10.646-27.959c-17.141-8.933-44.65,18.429-52.924,34.319
			c-8.522,16.366-4.013,35.32,9.432,43.911c-3.15,11.677-7.06,30.146-4.208,41.901c-19.883,13.53-42.265,29.967-63.681,47.208
			c3.901-12.954,7.846-29.657,6.991-43.199c0.004-0.001,0.008-0.002,0.011-0.004c14.341-4.958,22.769-20.511,21.03-36.4
			c-1.777-16.786-17.289-53.457-36.702-51.298c-19.541,2.068-26.924,40.657-25.131,57.852c1.669,15.689,12.301,27.991,25.748,30.799
			c1.086,17.387-8.025,44.924-14.507,60.95c-0.004,0.004-0.008,0.007-0.013,0.011c-32.829,28.058-60.071,55.722-60.18,55.917
			c-15.278,15.621-10.317,10.653-14.733,15.226c-14.362-12.776-8.963-40.332-2.348-58.488c0.069,0,0.202,0,0.249,0
			c14.647,0,27.694-11.018,31.735-26.8c4.898-19.102,1.61-61.361-20.407-61.361c-18.999,0-41.055,36.647-41.055,55.52
			c0,12.1,5.859,22.804,14.952,28.435c-8.801,24.663-12.777,56.2,6.598,73.721c-0.002,0.003-0.005,0.005-0.007,0.008
			c-25.495,27.782-40.83,47.759-45.78,53.792c-6.295-3.598-11.879-26.615-13.302-33.741c11.471-5.347,20.145-18.414,19.272-34.828
			c-0.221-4.159-3.743-7.362-7.928-7.129c-4.158,0.22-7.35,3.77-7.129,7.927c0.687,13.075-7.666,21.61-16.085,21.61l-0.252-0.002
			c-8.624-0.164-15.642-8.899-15.642-19.47l0.005-0.462c0.13-6.811,2.903-17.547,6.743-26.107
			c4.495-10.015,8.76-13.386,10.022-13.386c0.677,0.013,4.312,2.078,8.491,11.376c1.708,3.799,6.169,5.491,9.968,3.786
			c3.797-1.707,5.493-6.17,3.786-9.968c-7.439-16.551-16.048-20.158-21.951-20.271l-0.301-0.003
			c-19.582,0-31.844,38.041-31.844,55.035c0,18.101,12.076,32.695,27.95,34.379c2.379,12.397,8.096,35.178,18.95,43.18
			c-1.523,2.131-25.579,32.69-50.778,74.224c-0.003,0.004-0.005,0.009-0.008,0.013c-0.511-18.024-2.802-32.184-6.846-42.269
			c0.08-0.101,11.98-7.843,11.98-25.549c0-5.278-1.176-10.686-3.408-15.622c-6.998-15.492-32.863-45.419-50.926-37.225
			c-17.612,7.948-13.01,46.73-5.75,62.818c6.625,14.646,20.804,22.69,34.097,21.162c8.632,21.459,5.225,63.672,5.228,63.772
			c-11.661,21.362-17.14,34.36-17.632,35.526c-1.598,3.84,0.221,8.253,4.071,9.852c3.895,1.616,8.279-0.257,9.852-4.061
			c0.05-0.131,1.155-2.752,3.415-7.523c6.523-3.22,39.221-18.827,60.151-19.002c3.753,13.249,17.106,23.519,34.014,23.519
			c14.717,0,53.751-8.987,54.455-29.223v-0.523c0-19.864-38.17-31.887-53.781-32.43c-16.878-0.583-31.103,9.55-34.832,23.563
			c-0.001,0.005-0.002,0.011-0.004,0.016c-15.374,0.144-34.949,6.829-49.169,12.671c0.002-0.004,0.004-0.007,0.006-0.011
			c29.532-55.286,63.035-97.919,64.679-100.347c7.282,5.421,37.951,27.408,62.083,31.948c0.272,0.983,0.386,9.859,8.546,18.406
			c8.13,8.524,18.399,11.42,29.514,11.42c46.292,0,70.833-26.927,30.861-50.594c-9.551-5.661-24.231-11.862-35.506-11.862
			c-13.722,0-25.443,7.127-30.65,17.823c-17.963-3.33-44.702-20.965-55.69-29.123c8.847-11.313,17.534-22.018,28.186-34.379
			c0.001-0.001,0.001-0.001,0.002-0.002c18.93,5.656,48.178,12.111,67.827,9.064c0.091,0.101,7.27,18.381,30.576,18.381
			c19.011,0,59.45-21.6,55.329-42c-3.77-18.883-42.709-23.212-59.903-19.733c-15.297,3.055-26.715,14.742-28.297,28.46
			c-15.468,2.409-39.456-2.702-54.498-6.735c10.703-11.98,22.351-24.391,34.983-37.073c8.277-4.025,39.166-18.366,59.193-18.538
			c3.731,13.149,16.697,22.95,32.557,23.495c0.474,0.016,0.963,0.024,1.466,0.024c14.719,0,53.754-8.983,54.449-29.227
			c0.364-10.603-9.627-18.13-19.073-22.995c-3.701-1.907-8.247-0.452-10.155,3.249c-1.907,3.701-0.452,8.248,3.249,10.155
			c9.055,4.666,10.907,8.345,10.908,9.086c-0.026,0.751-2.436,4.709-13.087,8.974c-7.799,3.123-19.527,5.924-27.243,5.664
			c-9.967-0.342-19.329-7.249-19.073-16.675c0.289-8.375,9.294-16.569,22.449-15.162c4.153,0.443,7.854-2.558,8.295-6.699
			c0.44-4.141-2.558-7.854-6.699-8.295c-19.176-2.035-34.353,8.913-38.181,23.332c-9.213,0.085-19.934,2.517-30.114,5.716
			c49.137-45.472,93.097-76.026,95.245-77.681c16.748,15.973,45.364,14.776,67.93,9.45c5.099,10.914,16.939,18.22,30.848,18.22
			c18.46,0,58.286-18.669,55.45-38.833c-2.782-19.748-42.621-25.386-58.687-23.131c-16.213,2.292-28.697,14.433-30.157,28.846
			c-15.877,3.878-39.561,6.326-52.706-3.513c28.891-20.055,60.356-39.637,94.514-58.164
			C445.874,106.188,463.781,107.956,477.994,99.645z M443.776,73.518c0.854-5.71,4.805-11.259,10.545-14.596
			c6.866-3.991,21.703-8.253,32.872-8.253c6.956,0,9.329,1.649,9.59,2.091c2.644,4.841-13.509,26.372-26.358,33.847
			C457.199,94.273,441.798,87.167,443.776,73.518z M37.401,372.863c-6.916,0-13.822-5.016-17.2-12.475
			c-2.543-5.629-5.117-17.039-5.117-27.956c0-11.018,2.674-14.606,3.337-14.908c0.03-0.02,0.171-0.07,0.503-0.07
			c7.53,0,25.096,17.863,30.469,29.756C54.938,359.489,48.85,372.863,37.401,372.863z M119.631,458.079
			c0.292-8.464,8.967-15.35,19.341-15.35c7.725,0,19.393,3.692,26.75,7.117c9.962,4.644,13.31,8.987,13.31,10.264
			c-0.02,0.754-2.433,4.715-13.078,8.977c-8.354,3.347-19.16,5.68-26.297,5.68c-11.862,0-20.025-8.09-20.025-16.235V458.079z
			 M198.191,391.28c1.162-8.119,10.449-14.688,21.703-13.078c13.831,1.991,37.134,15.274,37.134,21.492
			c-0.513,3.569-17.069,10.565-35.878,10.565C203.951,410.259,196.993,399.402,198.191,391.28z M160.756,182.327
			c0-15.486,20.672-41.787,26.137-40.421c5.182,1.312,9.308,28.143,5.64,42.522c-2.292,8.967-9.5,15.461-17.13,15.461
			C166.497,199.889,160.756,191.408,160.756,182.327z M255.139,297.7c7.352-1.494,21.965-0.903,32.651,2.453
			c7.469,2.342,9.409,4.896,9.52,5.449v0.101c0,6.699-22.964,20.808-35.898,23.402c-12.607,2.457-22.648-5.24-22.648-14.425
			C238.764,306.858,245.8,299.56,255.139,297.7z M256.185,108.963c-0.7-6.425,0.609-18.897,4.313-29.394
			c3.348-9.469,6.745-11.802,7.449-11.872c6.306,0,20.216,26.885,20.216,40.431c0,9.801-6.011,17.823-13.993,18.668
			C265.393,127.722,257.301,119.569,256.185,108.963z M431.883,142.288c8.022,0,17.562,1.528,24.89,3.981
			c8.846,2.956,10.997,6.001,11.088,6.715c0,6.318-26.643,21.593-40.522,21.593c-9.675,0-18.467-6.29-18.467-15.189
			C408.873,151.203,416.479,142.288,431.883,142.288z"/>
	</g>
</g>
<g>
</g>
<g>
</g>
<g>
</g>
<g>
</g>
<g>
</g>
<g>
</g>
<g>
</g>
<g>
</g>
<g>
</g>
<g>
</g>
<g>
</g>
<g>
</g>
<g>
</g>
<g>
</g>
<g>
</g>
</svg>
