<?xml version="1.0" encoding="iso-8859-1"?>
<!-- Generator: Adobe Illustrator 19.0.0, SVG Export Plug-In . SVG Version: 6.00 Build 0)  -->
<svg version="1.1" id="Capa_1" xmlns="http://www.w3.org/2000/svg" xmlns:xlink="http://www.w3.org/1999/xlink" x="0px" y="0px"
	 viewBox="0 0 512 512" style="enable-background:new 0 0 512 512;" xml:space="preserve">
<path style="fill:#5F4D37;" d="M475.001,59.862c-1.92-3.834-6.589-5.388-10.425-3.465c-37.697,18.892-74.074,39.878-108.896,62.791
	c-0.045-10.13,5.589-34.188,8.386-43.159c1.283-4.093-0.993-8.453-5.087-9.737c-4.096-1.283-8.453,0.992-9.737,5.088
	c-3.929,12.512-11.283,44.289-8.065,57.532c-22.494,15.342-44.552,31.71-65.626,48.662c4.542-15.074,10.208-46.856,6.688-62.183
	c-0.961-4.183-5.129-6.792-9.311-5.831c-4.181,0.961-6.793,5.129-5.831,9.311c3.959,17.219-8.175,61.615-14.792,77.968
	c-20.448,17.474-40.15,35.705-59.014,54.614c-1.321,0.737-2.351,1.803-3.03,3.048c-5.109,5.164-10.159,10.374-15.14,15.636
	c-15.6-13.865-6.33-53.082,2.159-72.226c1.754-3.914,0.002-8.51-3.912-10.265c-3.91-1.755-8.512-0.004-10.266,3.911
	c-0.424,0.945-12.882,30.084-12.882,52.898c0,16.017,4.825,28.471,14.317,37.049c-16.676,18.174-32.269,36.499-47.189,55.424
	c-7.216-4.118-14.029-38.619-15.335-46.831c-0.67-4.237-4.64-7.129-8.887-6.457c-4.238,0.671-7.129,4.651-6.457,8.888
	c1.52,9.594,7.988,46.98,21.154,56.689c-21.946,28.795-39.196,54.845-52.328,76.501c-0.654-23.109-5.21-45.844-11.486-56.21
	c-2.223-3.672-7.002-4.843-10.669-2.623c-3.671,2.222-4.845,6.998-2.623,10.669c9.215,15.224,10.021,58.302,8.679,76.071
	c-12.018,22.003-17.66,35.387-18.162,36.595c-1.648,3.961,0.228,8.508,4.189,10.156c3.97,1.65,8.511-0.234,10.157-4.189
	c0.054-0.129,1.195-2.837,3.513-7.747c16.018-7.907,57.03-22.234,74.594-19.501c4.245,0.662,8.211-2.243,8.87-6.481
	c0.66-4.239-2.241-8.211-6.482-8.87c-2.198-0.343-4.592-0.516-7.114-0.516c-15.923,0-43.909,7.231-58.722,13.317
	c12.799-23.944,34.439-60.578,66.661-103.416c17.137,12.76,61.457,35.708,82.773,35.708c4.21,0,7.67-3.366,7.763-7.597
	c0.094-4.289-3.306-7.843-7.595-7.937c-18.119-0.398-61.079-23.293-73.495-32.51c9.111-11.694,18.567-23.269,29.047-35.426
	c20.564,6.143,63.104,14.412,83.705,7.644c4.076-1.338,6.294-5.729,4.955-9.805c-1.338-4.076-5.725-6.296-9.805-4.956
	c-15.229,5.004-51.724-1.601-67.494-5.829c11.032-12.341,23.036-25.128,36.042-38.198c15.952-7.757,54.827-21.988,72.22-19.28
	c4.249,0.661,8.21-2.242,8.87-6.481c0.66-4.239-2.241-8.211-6.482-8.87c-11.991-1.868-33.148,2.229-44.784,5.885
	c28.615-26.468,61.239-53.571,98.137-80.042c9.229,8.803,22.986,13.423,40.34,13.423c19.195,0,42.995-7.84,43.723-8.074
	c4.084-1.312,6.332-5.687,5.02-9.773c-1.313-4.085-5.691-6.334-9.773-5.02c-16.726,5.411-51.926,10.92-66.235,0.218
	c38.132-26.473,80.611-52.156,127.705-75.756C475.372,68.365,476.923,63.698,475.001,59.862z"/>
<g>
	<path style="fill:#D9CCBC;" d="M476.828,156.138c-9.291,9.56-28.733,18.002-39.764,19.556c-7.085,0.994-13.88-0.394-19.317-3.491
		c-6.308-3.605-10.783-9.508-11.787-16.635c-1.875-13.268,9.022-25.77,24.331-27.935c15.309-2.154,49.821,3.946,51.696,17.225
		C482.504,148.566,480.422,152.44,476.828,156.138z"/>
	<path style="fill:#D9CCBC;" d="M296.901,99.491c0.124,14.045-8.96,25.936-21.368,27.252c-13.32,1.419-25.449-9.902-27.075-25.284
		c-1.626-15.371,5.666-49.656,18.986-51.064c1.139-0.124,2.289,0,3.428,0.352c12.253,3.584,24.351,31.54,25.843,45.595
		C296.829,97.398,296.891,98.455,296.901,99.491z"/>
	<path style="fill:#D9CCBC;" d="M390.381,53.761c-1.315,4.982-2.942,9.457-4.651,12.73c-3.387,6.525-8.659,11.321-14.532,13.89
		c-6.474,2.848-13.683,2.983-19.918-0.269c-11.891-6.184-15.744-22.321-8.597-36.035c3.283-6.318,10.368-14.926,18.209-21.772v-0.01
		c9.187-8.017,19.431-13.621,25.843-10.285c2.797,1.46,4.62,4.495,5.676,8.452C394.762,29.306,393.302,42.792,390.381,53.761z"/>
	<path style="fill:#D9CCBC;" d="M511.92,45.153c-0.166,1.554-0.57,3.211-1.191,4.93c-4.526,12.543-19.96,28.453-29.893,34.233
		c-3.874,2.258-8.007,3.594-12.077,4.081c-9.944,1.181-19.545-2.755-24.331-10.979c-6.733-11.59-1.357-27.283,12.005-35.051
		c1.574-0.911,3.439-1.823,5.51-2.703c15.547-6.546,42.913-11.062,48.858-0.839C511.848,40.617,512.169,42.771,511.92,45.153z"/>
	<path style="fill:#D9CCBC;" d="M199.227,174.16c-0.28,2.289-0.653,4.371-1.108,6.173c-3.832,14.977-17.463,24.424-30.452,21.099
		c-12.978-3.325-20.395-18.157-16.562-33.145c2.828-11.041,13.776-30.017,24.538-37.889c0.01-0.01,0-0.01,0-0.01
		c3.843-2.807,7.654-4.205,11.073-3.335C198.139,129.974,201.267,157.401,199.227,174.16z"/>
	<path style="fill:#D9CCBC;" d="M115.794,269.598c0,0.01,0,0.01,0,0.021c-0.3,15.444-11.404,27.759-24.786,27.51
		c-13.403-0.259-24.03-12.999-23.74-28.453c0.3-15.257,11.487-47.677,24.652-48.299c0.176-0.01,0.363-0.01,0.539-0.01
		C105.861,220.615,116.095,254.133,115.794,269.598z"/>
	<path style="fill:#D9CCBC;" d="M39.602,378.428c-12.222,5.521-27.283-1.44-33.642-15.526C-0.4,348.804-4.212,313.971,8,308.46
		c3.511-1.585,7.976-0.58,12.688,2.009c11.684,6.391,24.973,22.414,29.499,32.451c1.512,3.356,2.403,6.805,2.703,10.203
		C53.875,363.999,48.903,374.233,39.602,378.428z"/>
	<path style="fill:#D9CCBC;" d="M264.74,401.298c-0.29,2.072-1.388,3.967-3.076,5.676c-9.125,9.281-35.735,13.289-48.64,11.445
		c-4.723-0.673-9.011-2.341-12.647-4.702c-8.152-5.283-12.947-14.107-11.632-23.284c1.895-13.268,15.837-22.249,31.146-20.063
		C235.2,372.555,266.646,388.029,264.74,401.298z"/>
	<path style="fill:#D9CCBC;" d="M347.178,238.824c-0.093,2.776-1.626,5.396-4.122,7.81c-9.529,9.177-33.218,15.185-45.461,14.77
		c-5.686-0.197-10.928-1.844-15.247-4.516c-7.437-4.599-12.191-12.233-11.901-20.695c0.466-13.403,13.362-23.823,28.816-23.295
		C314.717,213.427,347.645,225.432,347.178,238.824z"/>
	<path style="fill:#D9CCBC;" d="M184.457,462.72c-0.093,2.776-1.626,5.396-4.122,7.81c-9.529,9.177-33.218,15.185-45.461,14.77
		c-5.676-0.197-10.907-1.844-15.236-4.516c-7.447-4.589-12.202-12.222-11.912-20.695c0.456-13.393,13.362-23.823,28.816-23.295
		C151.985,437.322,184.912,449.327,184.457,462.72z"/>
	<path style="fill:#D9CCBC;" d="M300.9,314.136c-9.022,9.757-27.189,18.831-37.806,20.944c-7.489,1.502-14.801,0.259-20.602-2.983
		c-5.935-3.294-10.285-8.68-11.611-15.33c-2.621-13.144,7.541-26.247,22.704-29.282c15.164-3.025,49.956,1.098,52.587,14.242
		C306.959,305.664,304.773,309.962,300.9,314.136z"/>
</g>
<g>
	<path style="fill:#EBE5DD;" d="M385.482,25.857v0.01c-7.841,6.847-14.926,15.454-18.209,21.772
		c-6.111,11.715-4.185,25.211,3.926,32.741c5.873-2.569,11.145-7.364,14.532-13.89c1.709-3.273,3.335-7.748,4.651-12.73
		c2.921-10.969,4.381-24.455,2.03-33.3C390.081,22.045,387.75,23.878,385.482,25.857z"/>
	<path style="fill:#EBE5DD;" d="M486.802,51.606c-2.072,0.88-3.936,1.792-5.51,2.703c-12.999,7.551-18.437,22.601-12.533,34.088
		c4.071-0.487,8.203-1.823,12.077-4.081c9.933-5.78,25.366-21.689,29.893-34.233c0.621-1.719,1.025-3.377,1.191-4.93
		C503.178,46.127,493.794,48.665,486.802,51.606z"/>
	<path style="fill:#EBE5DD;" d="M295.949,99.615c0.321-0.031,0.632-0.073,0.953-0.124c-0.01-1.036-0.073-2.092-0.186-3.149
		c-1.492-14.056-13.59-42.011-25.843-45.595c-1.916,8.69-2.641,17.577-1.999,23.585C270.499,89.713,282.618,101.034,295.949,99.615z
		"/>
	<path style="fill:#EBE5DD;" d="M186.715,127.053c-3.418-0.87-7.23,0.528-11.073,3.335c0,0,0.01,0,0,0.01
		c-1.885,3.936-3.325,7.665-4.122,10.772c-3.832,14.977,3.584,29.81,16.562,33.135c3.75,0.963,7.541,0.86,11.145-0.145
		C201.267,157.401,198.139,129.974,186.715,127.053z"/>
	<path style="fill:#EBE5DD;" d="M92.458,220.367c-0.176,0-0.363,0-0.539,0.01c-2.569,7.758-4.133,15.609-4.236,21.171
		c-0.29,15.454,10.337,28.194,23.73,28.453c1.492,0.031,2.962-0.104,4.381-0.383c0-0.01,0-0.01,0-0.021
		C116.095,254.133,105.861,220.615,92.458,220.367z"/>
	<path style="fill:#EBE5DD;" d="M20.689,310.47c0.746,9.622,2.983,19.328,5.686,25.304c5.169,11.445,16.065,18.178,26.516,17.349
		c-0.3-3.397-1.191-6.847-2.703-10.203C45.661,332.884,32.372,316.86,20.689,310.47z"/>
	<path style="fill:#EBE5DD;" d="M441.735,152.036c-12.264,1.719-21.679,10.089-23.989,20.167c5.438,3.097,12.233,4.485,19.317,3.491
		c11.031-1.554,30.473-9.995,39.764-19.556C465.248,152.243,450.415,150.814,441.735,152.036z"/>
	<path style="fill:#EBE5DD;" d="M200.377,413.717c3.636,2.362,7.924,4.029,12.647,4.702c12.906,1.844,39.515-2.165,48.64-11.445
		c-9.778-6.235-22.28-11.052-30.328-12.202C216.462,392.649,202.873,401.07,200.377,413.717z"/>
	<path style="fill:#EBE5DD;" d="M282.349,256.889c4.319,2.672,9.56,4.319,15.247,4.516c12.243,0.414,35.931-5.593,45.461-14.77
		c-10.534-5.407-23.989-9.042-32.348-9.332C296.705,236.815,284.814,245.329,282.349,256.889z"/>
	<path style="fill:#EBE5DD;" d="M119.637,480.784c4.33,2.672,9.56,4.319,15.236,4.516c12.243,0.414,35.931-5.593,45.461-14.77
		c-10.534-5.407-23.999-9.042-32.358-9.332C133.993,460.721,122.092,469.214,119.637,480.784z"/>
	<path style="fill:#EBE5DD;" d="M265.03,311.889c-11.622,2.32-20.312,10.565-22.539,20.208c5.8,3.242,13.113,4.485,20.602,2.983
		c10.617-2.113,28.784-11.186,37.806-20.944C289.03,310.78,273.762,310.149,265.03,311.889z"/>
</g>
<g>
</g>
<g>
</g>
<g>
</g>
<g>
</g>
<g>
</g>
<g>
</g>
<g>
</g>
<g>
</g>
<g>
</g>
<g>
</g>
<g>
</g>
<g>
</g>
<g>
</g>
<g>
</g>
<g>
</g>
</svg>
