<svg height="512" viewBox="0 0 256 256" width="512" xmlns="http://www.w3.org/2000/svg"><g fill="#44c7b6"><path d="m126.282 54.317s20.323-39.534 68.844-31.73c0 0-15.876 48.531-68.844 31.73z"/><path d="m119.325 78.279s-43.864-7.208-51.325-55.779c0 0 51.059.211 51.325 55.779z"/><path d="m117.433 107.722s20.323-39.535 68.844-31.731c0 0-15.877 48.532-68.844 31.731z"/><path d="m117.3 151.322s-44.415-1.828-57.722-49.137c-.001 0 50.709-5.985 57.722 49.137z"/><path d="m127.58 178.112s20.323-39.535 68.843-31.731c0 0-15.876 48.532-68.843 31.731z"/><path d="m133.43 209.6s-43.106 10.856-69.3-30.728c.003.003 46.927-20.134 69.3 30.728z"/></g><path d="m141.28 54.319a76.3 76.3 0 0 0 13.41 3.03c-7.99 1.13-17.4.46-28.41-3.03 0 0 18.99-36.94 64.07-32.36-34.33 3.69-49.07 32.36-49.07 32.36z" fill="#4bdbc3"/><path d="m119.33 78.279s-43.87-7.21-51.33-55.779a57.55 57.55 0 0 1 15.48 2.78c5.23 27.8 22.66 41.34 35.66 47.72.12 1.7.18 3.459.19 5.279z" fill="#4bdbc3"/><path d="m132.43 107.719a76.3 76.3 0 0 0 13.41 3.03c-7.99 1.13-17.4.46-28.41-3.03 0 0 19-36.94 64.09-32.35-34.35 3.68-49.09 32.35-49.09 32.35z" fill="#4bdbc3"/><path d="m117.3 151.319s-44.42-1.83-57.72-49.13a57.374 57.374 0 0 1 15.24.79c8.29 28.48 27.97 40.21 41.99 45.01.18 1.08.35 2.19.49 3.33z" fill="#4bdbc3"/><path d="m142.58 178.109a76.3 76.3 0 0 0 13.41 3.03c-7.99 1.13-17.4.46-28.41-3.03 0 0 18.99-36.94 64.08-32.35-34.35 3.68-49.08 32.35-49.08 32.35z" fill="#4bdbc3"/><path d="m128.11 210.479c-12.32 1.37-43.38 1.1-63.98-31.6a59.51 59.51 0 0 1 28.68-3.43 56.5 56.5 0 0 0 -13.68 3.43c14.53 23.07 34.28 30 48.98 31.6z" fill="#4bdbc3"/><path d="m197.059 142.432c-26.512-4.265-44.951 5.131-55.75 13.763a72.973 72.973 0 0 0 -14.87 16.11 244.263 244.263 0 0 1 -5.666-59.471 70.437 70.437 0 0 0 17.7 2.409 51.042 51.042 0 0 0 36-14.182 63.441 63.441 0 0 0 15.609-23.826 4 4 0 0 0 -3.167-5.193c-26.5-4.261-44.948 5.131-55.749 13.763a73.269 73.269 0 0 0 -9.352 8.952 298.054 298.054 0 0 1 5.506-35.957 71.957 71.957 0 0 0 20 3.038 51.04 51.04 0 0 0 36-14.182 63.429 63.429 0 0 0 15.61-23.825 4 4 0 0 0 -3.167-5.193c-26.5-4.263-44.948 5.131-55.749 13.763a72.992 72.992 0 0 0 -8 7.456 246.008 246.008 0 0 1 11.002-31.808 4 4 0 0 0 -7.277-3.324c-.483 1.058-9.291 20.582-15.9 50.693a51 51 0 0 0 -24.358-29.378 63.431 63.431 0 0 0 -27.467-7.54h-.014a4 4 0 0 0 -3.956 4.6c4.749 30.914 25.482 51.524 51.208 58.348a282.092 282.092 0 0 0 -2.5 42.778 50.749 50.749 0 0 0 -25.461-21.865 63.449 63.449 0 0 0 -28.18-4.152 4 4 0 0 0 -3.381 5.055c7.27 25.852 23.541 38.636 35.912 44.809a71.714 71.714 0 0 0 23.54 7.083 232.61 232.61 0 0 0 6.17 29.741 50.745 50.745 0 0 0 -30.6-13.716 63.481 63.481 0 0 0 -28.2 4.019 4 4 0 0 0 -1.808 5.807c17.064 27.093 45.036 37.3 70.955 33.009a210.14 210.14 0 0 0 21.579 37.923 4 4 0 1 0 6.506-4.655 204 204 0 0 1 -30.729-64.558 71.612 71.612 0 0 0 19.558 2.907 51.04 51.04 0 0 0 36-14.182 63.428 63.428 0 0 0 15.61-23.826 4 4 0 0 0 -3.164-5.193zm-16.482-63.132c-4.743 9.892-18.982 31.879-50.32 27.33l23.16-9.829a4 4 0 1 0 -3.125-7.364l-20.814 8.833c9.048-9.56 25.622-21.356 51.099-18.97zm8.85-53.4c-4.743 9.891-18.984 31.877-50.32 27.329l23.16-9.828a4 4 0 1 0 -3.125-7.364l-20.814 8.823c9.05-9.554 25.62-21.349 51.099-18.969zm-116.527 1.042a56.227 56.227 0 0 1 18.742 6.118c12.563 6.87 20.174 18.069 22.722 33.373l-16.481-19.048a4 4 0 1 0 -6.049 5.234l14.974 17.306c-11.883-5.552-28.298-17.625-33.908-42.983zm-7.93 79.027c10.968.147 36.9 3.827 45.944 34.176l-18.65-16.885a4 4 0 1 0 -5.369 5.93l16.76 15.175c-12.472-4.197-30.139-14.28-38.685-38.396zm5.408 75c10.56-2.971 36.472-6.806 53.756 19.727l-22.676-10.9a4 4 0 0 0 -3.465 7.211l20.377 9.791c-13.151-.478-32.953-5.13-47.992-25.826zm70.029-3.958 23.158-9.828a4 4 0 1 0 -3.125-7.364l-21.067 8.94c8.935-9.61 25.475-21.535 51.353-19.08-4.743 9.892-18.974 31.885-50.319 27.335z" fill="#5f266d"/></svg>