<svg height="421pt" viewBox="0 -9 421.58182 421" width="421pt" xmlns="http://www.w3.org/2000/svg"><path d="m40.960938 388.957031c-2.859376 0-5.519532-1.808593-6.472657-4.667969-1.195312-3.570312.734375-7.4375 4.3125-8.632812 1.808594-.605469 181.839844-62.394531 255-227.652344l13.507813-74.292968c.675781-3.707032 4.222656-6.199219 7.9375-5.496094 3.710937.675781 6.167968 4.230468 5.496094 7.933594l-13.652344 75.09375c-.097656.527343-.253906 1.039062-.464844 1.527343-75.441406 171.453125-261.636719 235.214844-263.507812 235.835938-.714844.238281-1.445313.351562-2.15625.351562zm0 0" fill="#0e65e5"/><path d="m88.746094 382.128906c0-7.539062-18.335938-13.652344-40.960938-13.652344-22.621094 0-40.957031 6.113282-40.957031 13.652344 0 7.542969 18.335937 13.65625 40.957031 13.65625 22.625 0 40.960938-6.113281 40.960938-13.65625zm0 0" fill="#0e65e5"/><path d="m47.785156 402.609375c-23.785156 0-47.785156-6.332031-47.785156-20.480469 0-14.144531 24-20.480468 47.785156-20.480468 23.789063 0 47.789063 6.335937 47.789063 20.480468 0 14.148438-24 20.480469-47.789063 20.480469zm-33.511718-20.480469c3.207031 2.527344 14.644531 6.828125 33.511718 6.828125 18.867188 0 30.308594-4.300781 33.515625-6.828125-3.207031-2.523437-14.648437-6.824218-33.515625-6.824218-18.867187 0-30.304687 4.296874-33.511718 6.824218zm67.824218.820313h.066406zm0 0" fill="#0e65e5"/><path d="m329.867188 7.109375c-24.25 4.082031-46.332032 28.324219-53.011719 61.09375-6.679688 32.773437 4.160156 63.722656 24.878906 76.96875 24.253906-4.082031 46.335937-28.324219 53.011719-61.097656 6.679687-32.769531-4.15625-63.71875-24.878906-76.964844zm0 0" fill="#2a8ee6"/><path d="m301.734375 151.996094c-1.296875 0-2.574219-.367188-3.675781-1.074219-23.828125-15.234375-35.03125-49.019531-27.894532-84.078125 7.144532-35.066406 30.683594-61.773438 58.570313-66.46875 1.679687-.257812 3.390625.074219 4.808594.980469 23.828125 15.234375 35.035156 49.019531 27.894531 84.082031-7.148438 35.066406-30.683594 61.773438-58.570312 66.464844-.375.0625-.753907.09375-1.132813.09375zm26.65625-137.621094c-20.929687 5-39.148437 27.242188-44.84375 55.1875-5.691406 27.953125 2.375 55.546875 19.667969 68.339844 20.929687-5 39.148437-27.238282 44.84375-55.191406 5.695312-27.949219-2.375-55.539063-19.667969-68.335938zm0 0" fill="#0e65e5"/><path d="m189.359375 113.257812c-23.8125 13.671876-37.535156 47.613282-31.824219 84.511719 5.710938 36.898438 29.050782 65.101563 55.875 70.9375 23.8125-13.671875 37.535156-47.609375 31.824219-84.507812-5.707031-36.902344-29.046875-65.105469-55.875-70.941407zm0 0" fill="#94c1ff"/><path d="m213.410156 275.535156c-.484375 0-.972656-.050781-1.453125-.152344-30.535156-6.648437-55.117187-37.417968-61.167969-76.566406-6.0625-39.160156 8.074219-75.917968 35.167969-91.480468 1.472657-.847657 3.203125-1.101563 4.851563-.753907 30.535156 6.648438 55.117187 37.421875 61.171875 76.566407 6.0625 39.160156-8.074219 75.921874-35.167969 91.480468-1.042969.601563-2.214844.90625-3.402344.90625zm-22.921875-154.964844c-20.417969 13.414063-31.144531 44.226563-26.203125 76.152344 4.9375 31.925782 24.472656 58.054688 48 64.675782 20.417969-13.414063 31.144532-44.226563 26.203125-76.152344-4.9375-31.929688-24.472656-58.054688-48-64.675782zm0 0" fill="#0e65e5"/><path d="m261.082031 228.253906c15.109375 22.921875 49.832031 34.527344 86.308594 26.558594 36.480469-7.96875 63.191406-33.003906 67.367187-60.140625-15.109374-22.921875-49.832031-34.53125-86.308593-26.558594-36.480469 7.96875-63.195313 33.003907-67.367188 60.140625zm0 0" fill="#94c1ff"/><path d="m324.214844 264.183594c-29.300782 0-55.339844-11.699219-68.832032-32.171875-.929687-1.414063-1.304687-3.128907-1.046874-4.800781 4.75-30.878907 33.949218-57.304688 72.652343-65.765626 38.710938-8.460937 76.273438 3.390626 93.46875 29.472657.929688 1.414062 1.304688 3.128906 1.046875 4.800781-4.75 30.878906-33.949218 57.304688-72.65625 65.765625-8.324218 1.820313-16.601562 2.699219-24.632812 2.699219zm-55.902344-37.511719c14.640625 19.558594 46.046875 28.363281 77.621094 21.476563 31.5625-6.898438 56.4375-28.011719 61.589844-51.890626-14.640626-19.554687-46.050782-28.359374-77.621094-21.480468-31.5625 6.898437-56.4375 28.011718-61.589844 51.894531zm0 0" fill="#0e65e5"/><path d="m150.503906 332.671875c5.832032 21.980469 30.042969 40.234375 60.789063 43.578125 30.746093 3.339844 58.3125-9.285156 68.734375-29.5-5.835938-21.980469-30.046875-40.234375-60.789063-43.578125-30.746093-3.339844-58.316406 9.289063-68.734375 29.5zm0 0" fill="#2a8ee6"/><path d="m221.230469 383.617188c-3.515625 0-7.074219-.1875-10.671875-.582032-33.105469-3.589844-59.894532-23.132812-66.652344-48.609375-.4375-1.640625-.25-3.382812.527344-4.882812 12.078125-23.4375 42.484375-36.8125 75.539062-33.160157 33.101563 3.601563 59.890625 23.140626 66.652344 48.613282.4375 1.640625.25 3.375-.53125 4.878906-10.761719 20.890625-36.054688 33.742188-64.863281 33.742188zm-63.347657-50.148438c6.433594 18.554688 28.226563 33.179688 54.148438 35.996094 25.925781 2.800781 50.351562-6.78125 60.617188-23.515625-6.433594-18.542969-28.226563-33.171875-54.152344-35.992188-25.925782-2.78125-50.34375 6.785157-60.613282 23.511719zm0 0" fill="#0e65e5"/><path d="m197.972656 190.984375s18.207032 30.71875 15.929688 80.210937" fill="#94c1ff"/><path d="m213.910156 278.023438c-.109375 0-.214844 0-.324218-.007813-3.765626-.171875-6.679688-3.367187-6.503907-7.132813 2.15625-46.914062-14.8125-76.132812-14.984375-76.417968-1.921875-3.246094-.847656-7.433594 2.394532-9.355469 3.238281-1.925781 7.429687-.851563 9.351562 2.394531.789062 1.324219 19.21875 33.058594 16.878906 84.007813-.171875 3.660156-3.191406 6.511719-6.8125 6.511719zm0 0" fill="#0e65e5"/><path d="m334.507812 211.464844s-34.132812 13.652344-75.09375 13.652344" fill="#94c1ff"/><g fill="#0e65e5"><path d="m259.414062 231.945312c-3.769531 0-6.828124-3.054687-6.828124-6.828124 0-3.773438 3.058593-6.828126 6.828124-6.828126 39.191407 0 72.230469-13.03125 72.554688-13.164062 3.519531-1.402344 7.480469.296875 8.878906 3.804688 1.398438 3.5-.304687 7.472656-3.804687 8.871093-1.445313.578125-35.835938 14.144531-77.628907 14.144531zm0 0"/><path d="m88.746094 204.636719c-3.769532 0-6.824219-3.054688-6.824219-6.828125v-27.304688c0-3.773437 3.054687-6.828125 6.824219-6.828125 3.769531 0 6.828125 3.054688 6.828125 6.828125v27.304688c0 3.773437-3.058594 6.828125-6.828125 6.828125zm0 0"/><path d="m102.398438 190.984375h-27.304688c-3.769531 0-6.828125-3.054687-6.828125-6.828125s3.058594-6.824219 6.828125-6.824219h27.304688c3.773437 0 6.828124 3.050781 6.828124 6.824219s-3.054687 6.828125-6.828124 6.828125zm0 0"/><path d="m354.988281 354.824219c-3.773437 0-6.828125-3.054688-6.828125-6.828125v-27.304688c0-3.773437 3.054688-6.828125 6.828125-6.828125 3.769531 0 6.824219 3.054688 6.824219 6.828125v27.304688c0 3.773437-3.054688 6.828125-6.824219 6.828125zm0 0"/><path d="m368.640625 341.171875h-27.308594c-3.769531 0-6.824219-3.054687-6.824219-6.828125s3.054688-6.828125 6.824219-6.828125h27.308594c3.769531 0 6.824219 3.054687 6.824219 6.828125s-3.054688 6.828125-6.824219 6.828125zm0 0"/><path d="m191.148438 54.449219c-3.773438 0-6.828126-3.050781-6.828126-6.824219v-27.308594c0-3.773437 3.054688-6.824218 6.828126-6.824218 3.769531 0 6.824218 3.050781 6.824218 6.824218v27.308594c0 3.773438-3.054687 6.824219-6.824218 6.824219zm0 0"/><path d="m204.800781 40.796875h-27.308593c-3.769532 0-6.824219-3.054687-6.824219-6.828125s3.054687-6.824219 6.824219-6.824219h27.308593c3.769531 0 6.824219 3.050781 6.824219 6.824219s-3.054688 6.828125-6.824219 6.828125zm0 0"/></g><path d="m293.546875 102.238281c-3.769531 0-6.828125-3.054687-6.828125-6.828125 0-51.414062 29.8125-66.914062 31.082031-67.546875 3.386719-1.671875 7.476563-.3125 9.160157 3.054688 1.675781 3.351562.332031 7.433593-3.003907 9.132812-1.089843.574219-23.582031 12.988281-23.582031 55.359375 0 3.773438-3.058594 6.828125-6.828125 6.828125zm0 0" fill="#fff"/></svg>